:SAMPLES-PER-SECOND 30
:FULLY-SPECIFIED
:DEGREES
972
root  34.3474 38.9167 7.71616 4.00952 84.607 6.89905
RightUpLeg  -11.6934 -17.8905 -12.8375
RightLeg  23.6402 -2.29575 -1.3269
RightFoot  -2.63101 -0.56318 7.1494
RightToes  0.000481921 0.542163 -0.142578
Spine  19.9184 -4.82218 2.25538
Spine1  4.21039 -6.98245 9.94516
HEad  16.4023 9.85153 -5.07207
LeftShoulder1  3.84621 -11.7172 -18.7083
LeftArm  -22.8226 -61.0615 -36.7667
LeftForeArm  50.2269 -45.4324 -7.41043
LeftHand  -0.25398 0.0180481 5.50724
RightShoulder  4.47469 10.2871 26.3853
RightArm  -7.65547 21.9526 55.6053
RightForeArm  168.748 61.4684 161.674
RightHand  -0.034013 -6.08653 -1.93513
LeftUpLeg  -11.4977 18.6389 3.7977
LeftLeg  29.7569 8.09611 5.32141
LeftFoot  -9.99315 0.108552 -4.13314
LeftToes  1.06244e-005 4.65869e-005 -8.65518e-006
973
root  34.2653 38.8131 7.73657 0.883667 88.8657 3.29126
RightUpLeg  -11.8214 -19.5876 -13.4945
RightLeg  25.3003 -4.33581 -2.45668
RightFoot  -3.35458 -0.56319 7.72439
RightToes  0.000481921 0.542163 -0.142578
Spine  20.7376 -4.87246 -1.58864
Spine1  3.46271 -8.64021 14.6019
HEad  16.0557 10.1876 -7.0558
LeftShoulder1  3.22797 -10.0614 -17.1629
LeftArm  -19.293 -62.4282 -40.4592
LeftForeArm  67.1775 -50.619 -9.0353
LeftHand  -0.25398 0.0180481 5.50724
RightShoulder  4.62118 10.6821 26.5143
RightArm  -6.43906 19.581 56.364
RightForeArm  172.756 59.0512 163.659
RightHand  -0.0619421 -7.22995 0.701244
LeftUpLeg  -13.2323 17.2678 3.0522
LeftLeg  30.2785 5.89556 4.06089
LeftFoot  -9.95547 0.0974092 -3.14945
LeftToes  1.06244e-005 4.65869e-005 -8.65518e-006
974
root  34.2822 38.8509 7.77499 143.345 87.5536 145.135
RightUpLeg  -11.5646 -20.7319 -14.3163
RightLeg  25.6674 -6.0887 -3.40296
RightFoot  -3.42992 -0.585986 8.11977
RightToes  0.000481921 0.542163 -0.142578
Spine  20.4654 -4.48529 -2.72188
Spine1  4.13755 -8.69385 15.3988
HEad  14.992 9.10894 -9.25436
LeftShoulder1  3.40208 -9.62412 -19.375
LeftArm  -12.939 -58.2847 -44.4382
LeftForeArm  76.8478 -66.5397 -18.7284
LeftHand  -0.25398 0.0180481 5.50724
RightShoulder  4.81588 10.8543 27.5155
RightArm  -6.38395 16.7053 55.8094
RightForeArm  176.685 56.6583 165.375
RightHand  -0.0967053 -6.96973 3.24147
LeftUpLeg  -14.106 16.2152 2.02027
LeftLeg  29.5014 4.29152 2.97098
LeftFoot  -9.17056 0.101486 -2.45382
LeftToes  1.06244e-005 4.65869e-005 -8.65518e-006
975
root  34.3063 38.9953 7.79775 160.789 84.9445 162.128
RightUpLeg  -10.637 -22.2557 -15.1203
RightLeg  24.7631 -7.1086 -3.79163
RightFoot  -2.92425 -0.629855 8.27442
RightToes  0.000481921 0.542163 -0.142578
Spine  19.9527 -3.79077 -0.267547
Spine1  5.48957 -6.81663 11.5399
HEad  14.0726 5.95382 -9.98338
LeftShoulder1  3.97837 -10.6074 -21.8382
LeftArm  -6.7895 -50.874 -49.1636
LeftForeArm  90.0045 -79.0512 -47.6569
LeftHand  -0.25398 0.0180481 5.50724
RightShoulder  4.97347 10.6472 29.1701
RightArm  -8.92135 14.5918 53.1086
RightForeArm  -178.008 54.9847 166.642
RightHand  -0.137979 -6.80249 6.29708
LeftUpLeg  -14.1909 14.7713 1.09281
LeftLeg  27.8416 3.4738 2.33015
LeftFoot  -7.84131 0.10919 -2.03309
LeftToes  1.06244e-005 4.65869e-005 -8.65518e-006
976
root  34.2865 39.179 7.81731 163.572 82.6668 164.367
RightUpLeg  -9.67036 -24.2565 -15.7038
RightLeg  23.1778 -7.51397 -3.73483
RightFoot  -2.11572 -0.681887 8.25854
RightToes  0.000481921 0.542163 -0.142578
Spine  19.7392 -2.79994 3.95469
Spine1  6.64549 -3.72848 5.64332
HEad  13.1893 1.41024 -9.12266
LeftShoulder1  4.57273 -11.8022 -23.6042
LeftArm  -2.27294 -41.9388 -52.7189
LeftForeArm  125.763 -81.0943 -99.5227
LeftHand  -0.25398 0.0180481 5.50724
RightShoulder  4.82812 10.1116 29.4834
RightArm  -13.6512 14.8784 49.2198
RightForeArm  -171.736 54.3042 167.504
RightHand  -0.231866 -7.11856 11.1331
LeftUpLeg  -14.1157 13.4833 0.298692
LeftLeg  25.7032 2.86451 1.84077
LeftFoot  -6.33402 0.108945 -1.62416
LeftToes  1.06244e-005 4.65869e-005 -8.65518e-006
977
root  34.1977 39.3337 7.84407 163.934 81.049 163.885
RightUpLeg  -9.53634 -25.7648 -16.0775
RightLeg  21.7992 -7.75662 -3.61939
RightFoot  -1.31288 -0.730417 8.20851
RightToes  0.000481921 0.542163 -0.142578
Spine  19.8372 -1.4409 7.80528
Spine1  7.45001 -0.274133 0.199258
HEad  11.9909 -3.47771 -7.71175
LeftShoulder1  5.26051 -12.7298 -26.2553
LeftArm  0.703353 -33.3342 -52.5161
LeftForeArm  143.579 -79.2983 -122.386
LeftHand  -0.25398 0.0180481 5.50724
RightShoulder  4.14393 9.19803 26.5566
RightArm  -19.7659 19.5805 45.7233
RightForeArm  -170.867 58.0892 165.79
RightHand  -0.22765 -6.61838 15.5616
LeftUpLeg  -14.343 13.4138 -0.619479
LeftLeg  23.5468 1.81928 1.20446
LeftFoot  -4.9216 0.0966232 -1.19341
LeftToes  1.06244e-005 4.65869e-005 -8.65518e-006
978
root  33.9996 39.3973 7.87406 160.318 80.4847 159.439
RightUpLeg  -10.5689 -25.7912 -16.4919
RightLeg  21.5043 -8.0901 -3.7144
RightFoot  -0.821427 -0.757308 8.15158
RightToes  0.000481921 0.542163 -0.142578
Spine  20.7614 -0.2778 11.279
Spine1  7.60031 3.23385 -5.92067
HEad  11.1377 -7.32132 -6.09412
LeftShoulder1  5.80243 -13.4505 -28.1337
LeftArm  2.37651 -26.4372 -50.612
LeftForeArm  150.667 -78.6922 -127.539
LeftHand  -0.25398 0.0180481 5.50724
RightShoulder  3.09963 7.85368 20.8996
RightArm  -27.6464 29.7 42.6236
RightForeArm  174.932 70.6095 150.791
RightHand  -0.0704003 -5.46886 16.1778
LeftUpLeg  -14.8358 14.9505 -1.8448
LeftLeg  21.9878 0.349275 0.486486
LeftFoot  -3.87147 0.0797125 -0.861958
LeftToes  1.06244e-005 4.65869e-005 -8.65518e-006
979
root  33.706 39.3421 7.92983 153.781 80.418 152.285
RightUpLeg  -12.4832 -24.9038 -17.1277
RightLeg  22.6435 -8.43005 -4.06067
RightFoot  -0.887086 -0.73944 8.0023
RightToes  0.000481921 0.542163 -0.142578
Spine  22.9423 0.517249 13.9061
Spine1  6.31015 6.28951 -12.0982
HEad  11.5413 -9.53531 -4.97971
LeftShoulder1  6.08209 -14.1786 -28.3062
LeftArm  2.41434 -21.3587 -49.8241
LeftForeArm  150.136 -78.999 -125.821
LeftHand  -0.25398 0.0180481 5.50724
RightShoulder  1.95199 5.93473 13.7244
RightArm  -37.495 41.7942 38.8987
RightForeArm  103.614 80.6571 71.1595
RightHand  0.0361317 -4.74826 14.6407
LeftUpLeg  -15.6257 17.2836 -3.34557
LeftLeg  21.3866 -1.23444 -0.203223
LeftFoot  -3.35211 0.058128 -0.541983
LeftToes  1.06244e-005 4.65869e-005 -8.65518e-006
980
root  33.4535 39.2134 8.04811 151.022 79.2795 148.711
RightUpLeg  -14.5231 -25.2686 -17.7888
RightLeg  24.606 -8.67867 -4.53774
RightFoot  -1.51758 -0.680914 7.78959
RightToes  0.000481921 0.542163 -0.142578
Spine  25.0996 0.927116 14.8894
Spine1  4.10044 7.9038 -16.1703
HEad  12.4168 -10.6958 -4.35716
LeftShoulder1  6.14159 -14.5459 -27.9186
LeftArm  1.88114 -17.5579 -50.6896
LeftForeArm  152.675 -78.404 -129.346
LeftHand  -0.25398 0.0180481 5.50724
RightShoulder  1.16802 3.94535 8.34263
RightArm  -46.5707 48.5803 35.2359
RightForeArm  71.1902 72.069 23.5849
RightHand  -0.102536 -5.71147 15.4636
LeftUpLeg  -17.0191 18.688 -4.91821
LeftLeg  21.4227 -2.94886 -0.944743
LeftFoot  -3.13146 0.0245605 -0.0796275
LeftToes  1.06244e-005 4.65869e-005 -8.65518e-006
981
root  33.3895 39.1134 8.21992 156.641 76.1677 153.141
RightUpLeg  -15.5479 -28.3097 -18.1869
RightLeg  26.2231 -8.84772 -4.93759
RightFoot  -2.38401 -0.620494 7.70389
RightToes  0.000481921 0.542163 -0.142578
Spine  25.3722 0.945794 14.2396
Spine1  3.1591 7.71894 -16.4523
HEad  11.8015 -11.8879 -3.62484
LeftShoulder1  6.25459 -14.4062 -28.8415
LeftArm  2.28754 -15.1241 -51.7731
LeftForeArm  164.325 -75.8329 -141.055
LeftHand  -0.25398 0.0180481 5.50724
RightShoulder  1.04372 3.11448 8.35408
RightArm  -48.492 46.6431 35.2404
RightForeArm  93.4577 77.0777 41.2794
RightHand  -0.237483 -6.62901 16.0834
LeftUpLeg  -18.7174 17.8335 -6.08738
LeftLeg  21.3908 -4.85098 -1.76186
LeftFoot  -2.72558 -0.0116959 0.372382
LeftToes  1.06244e-005 4.65869e-005 -8.65518e-006
982
root  33.5073 39.1194 8.40141 164.047 71.8996 159.757
RightUpLeg  -14.6683 -32.6692 -18.4595
RightLeg  26.723 -8.98141 -5.11062
RightFoot  -2.97506 -0.593579 7.82573
RightToes  0.000481921 0.542163 -0.142578
Spine  24.0673 0.561113 12.7211
Spine1  4.55974 6.4259 -13.8676
HEad  9.42191 -13.2194 -2.55765
LeftShoulder1  6.44609 -14.1369 -30.487
LeftArm  3.5513 -14.3321 -52.5724
LeftForeArm  174.951 -72.428 -150.394
LeftHand  -0.25398 0.0180481 5.50724
RightShoulder  1.58168 4.19339 13.4893
RightArm  -43.23 38.5225 38.4899
RightForeArm  174.258 77.9986 134.663
RightHand  -0.116124 -5.88627 12.5081
LeftUpLeg  -19.5063 15.3605 -6.29915
LeftLeg  20.7965 -6.66348 -2.46041
LeftFoot  -1.9344 -0.0299845 0.508684
LeftToes  1.06244e-005 4.65869e-005 -8.65518e-006
